<svg width="1198" height="200" viewBox="0 0 1198 200" fill="none" xmlns="http://www.w3.org/2000/svg">
<rect x="1" width="96" height="96" rx="16" fill="#262338"/>
<circle cx="49" cy="38" r="6" stroke="#1AECA4" stroke-width="2"/>
<circle cx="33" cy="44" r="4" stroke="#1AECA4" stroke-width="2"/>
<circle cx="65" cy="44" r="4" stroke="#1AECA4" stroke-width="2"/>
<path d="M39 56C39 52.6863 41.6863 50 45 50H53C56.3137 50 59 52.6863 59 56V64H39V56Z" stroke="#1AECA4" stroke-width="2"/>
<path d="M39.0171 55.5432L40.0143 55.6183L40.0511 55.1291L39.6869 54.8006L39.0171 55.5432ZM39 64V65H40V64H39ZM27 64H26V65H27V64ZM40 56C40 55.8714 40.0048 55.7441 40.0143 55.6183L38.02 55.4681C38.0067 55.6438 38 55.8212 38 56H40ZM40 64V56H38V64H40ZM39 63H38V65H39V63ZM38 63H27V65H38V63ZM28 64V60H26V64H28ZM28 60C28 57.2386 30.2386 55 33 55V53C29.134 53 26 56.134 26 60H28ZM33 55H35V53H33V55ZM35 55C36.2881 55 37.4604 55.4858 38.3474 56.2858L39.6869 54.8006C38.4468 53.6821 36.8019 53 35 53V55Z" fill="#1AECA4"/>
<path d="M58.9829 55.5432L57.9857 55.6183L57.9489 55.1291L58.3131 54.8006L58.9829 55.5432ZM59 64V65H58V64H59ZM71 64H72V65H71V64ZM58 56C58 55.8714 57.9952 55.7441 57.9857 55.6183L59.98 55.4681C59.9933 55.6438 60 55.8212 60 56H58ZM58 64V56H60V64H58ZM59 63H60V65H59V63ZM60 63H71V65H60V63ZM70 64V60H72V64H70ZM70 60C70 57.2386 67.7614 55 65 55V53C68.866 53 72 56.134 72 60H70ZM65 55H63V53H65V55ZM63 55C61.7119 55 60.5396 55.4858 59.6526 56.2858L58.3131 54.8006C59.5532 53.6821 61.1981 53 63 53V55Z" fill="#1AECA4"/>
<path d="M15.64 137.4C18.0933 137.8 19.9733 138.72 21.28 140.16C22.5867 141.573 23.24 143.333 23.24 145.44C23.24 147.067 22.8133 148.573 21.96 149.96C21.1067 151.32 19.8 152.413 18.04 153.24C16.3067 154.067 14.1733 154.48 11.64 154.48C9.66667 154.48 7.72 154.227 5.8 153.72C3.90667 153.187 2.29333 152.44 0.96 151.48L3.48 146.52C4.54667 147.32 5.77333 147.947 7.16 148.4C8.57333 148.827 10.0133 149.04 11.48 149.04C13.1067 149.04 14.3867 148.733 15.32 148.12C16.2533 147.48 16.72 146.587 16.72 145.44C16.72 143.147 14.9733 142 11.48 142H8.52V137.72L14.28 131.2H2.36V126H21.96V130.2L15.64 137.4ZM47.9566 148.72V154H26.7966V149.8L37.5966 139.6C38.7432 138.507 39.5166 137.573 39.9166 136.8C40.3166 136 40.5166 135.213 40.5166 134.44C40.5166 133.32 40.1299 132.467 39.3566 131.88C38.6099 131.267 37.5032 130.96 36.0366 130.96C34.8099 130.96 33.7032 131.2 32.7166 131.68C31.7299 132.133 30.9032 132.827 30.2366 133.76L25.5166 130.72C26.6099 129.093 28.1166 127.827 30.0366 126.92C31.9566 125.987 34.1566 125.52 36.6366 125.52C38.7166 125.52 40.5299 125.867 42.0766 126.56C43.6499 127.227 44.8632 128.187 45.7166 129.44C46.5966 130.667 47.0366 132.12 47.0366 133.8C47.0366 135.32 46.7166 136.747 46.0766 138.08C45.4366 139.413 44.1966 140.933 42.3566 142.64L35.9166 148.72H47.9566ZM55.7009 154.32C54.6076 154.32 53.6876 153.947 52.9409 153.2C52.1943 152.453 51.8209 151.52 51.8209 150.4C51.8209 149.253 52.1943 148.333 52.9409 147.64C53.6876 146.92 54.6076 146.56 55.7009 146.56C56.7943 146.56 57.7143 146.92 58.4609 147.64C59.2076 148.333 59.5809 149.253 59.5809 150.4C59.5809 151.52 59.2076 152.453 58.4609 153.2C57.7143 153.947 56.7943 154.32 55.7009 154.32ZM73.3297 125.52C77.2497 125.52 80.3164 126.72 82.5297 129.12C84.743 131.493 85.8497 134.92 85.8497 139.4C85.8497 142.573 85.2497 145.293 84.0497 147.56C82.8764 149.827 81.2097 151.547 79.0497 152.72C76.8897 153.893 74.3964 154.48 71.5697 154.48C70.0764 154.48 68.6497 154.32 67.2897 154C65.9297 153.653 64.7697 153.173 63.8097 152.56L66.2097 147.8C67.5697 148.733 69.3164 149.2 71.4497 149.2C73.823 149.2 75.703 148.507 77.0897 147.12C78.4764 145.707 79.223 143.68 79.3297 141.04C77.6497 142.72 75.3297 143.56 72.3697 143.56C70.583 143.56 68.9564 143.2 67.4897 142.48C66.023 141.76 64.863 140.747 64.0097 139.44C63.1564 138.107 62.7297 136.573 62.7297 134.84C62.7297 132.973 63.1964 131.333 64.1297 129.92C65.063 128.507 66.3297 127.427 67.9297 126.68C69.5564 125.907 71.3564 125.52 73.3297 125.52ZM73.8097 138.72C75.223 138.72 76.3697 138.333 77.2497 137.56C78.1564 136.76 78.6097 135.747 78.6097 134.52C78.6097 133.293 78.1697 132.293 77.2897 131.52C76.4364 130.747 75.2497 130.36 73.7297 130.36C72.343 130.36 71.2097 130.733 70.3297 131.48C69.4764 132.227 69.0497 133.24 69.0497 134.52C69.0497 135.8 69.4764 136.827 70.3297 137.6C71.2097 138.347 72.3697 138.72 73.8097 138.72ZM99.5584 136.52C103.505 136.52 106.412 137.307 108.278 138.88C110.172 140.453 111.118 142.56 111.118 145.2C111.118 146.907 110.692 148.467 109.838 149.88C108.985 151.267 107.678 152.387 105.918 153.24C104.185 154.067 102.038 154.48 99.4784 154.48C97.5051 154.48 95.5584 154.227 93.6384 153.72C91.7451 153.187 90.1318 152.44 88.7984 151.48L91.3584 146.52C92.4251 147.32 93.6518 147.947 95.0384 148.4C96.4251 148.827 97.8518 149.04 99.3184 149.04C100.945 149.04 102.225 148.72 103.158 148.08C104.092 147.44 104.558 146.547 104.558 145.4C104.558 144.2 104.065 143.293 103.078 142.68C102.118 142.067 100.438 141.76 98.0384 141.76H90.8784L92.3184 126H109.398V131.2H97.7184L97.2784 136.52H99.5584ZM136.199 126V130.2L125.799 154H118.759L128.799 131.28H119.519V135.84H113.759V126H136.199Z" fill="#FCFCFC"/>
<path d="M2.32102 191V180.091H6.0071C6.86293 180.091 7.5625 180.245 8.10582 180.554C8.6527 180.86 9.05753 181.273 9.32031 181.795C9.5831 182.317 9.71449 182.9 9.71449 183.543C9.71449 184.185 9.5831 184.77 9.32031 185.295C9.06108 185.821 8.6598 186.24 8.11648 186.552C7.57315 186.861 6.87713 187.016 6.02841 187.016H3.38636V185.844H5.9858C6.57173 185.844 7.04226 185.743 7.39737 185.54C7.75249 185.338 8.00994 185.064 8.16974 184.72C8.3331 184.372 8.41477 183.979 8.41477 183.543C8.41477 183.106 8.3331 182.715 8.16974 182.371C8.00994 182.026 7.75071 181.756 7.39205 181.561C7.03338 181.362 6.55753 181.263 5.96449 181.263H3.64205V191H2.32102ZM15.7646 191.17C14.9762 191.17 14.2962 190.996 13.7244 190.648C13.1562 190.297 12.7177 189.807 12.4087 189.178C12.1033 188.546 11.9506 187.811 11.9506 186.973C11.9506 186.135 12.1033 185.396 12.4087 184.757C12.7177 184.114 13.1474 183.614 13.6978 183.255C14.2518 182.893 14.8981 182.712 15.6367 182.712C16.0629 182.712 16.4837 182.783 16.8991 182.925C17.3146 183.067 17.6928 183.298 18.0337 183.617C18.3746 183.933 18.6463 184.352 18.8487 184.874C19.0511 185.396 19.1523 186.039 19.1523 186.803V187.335H12.8455V186.249H17.8739C17.8739 185.787 17.7816 185.375 17.5969 185.013C17.4158 184.651 17.1566 184.365 16.8192 184.155C16.4854 183.946 16.0913 183.841 15.6367 183.841C15.136 183.841 14.7028 183.965 14.337 184.214C13.9748 184.459 13.696 184.778 13.5007 185.173C13.3054 185.567 13.2077 185.989 13.2077 186.44V187.165C13.2077 187.783 13.3143 188.306 13.5273 188.736C13.744 189.162 14.044 189.487 14.4276 189.711C14.8111 189.931 15.2567 190.041 15.7646 190.041C16.0948 190.041 16.3931 189.995 16.6594 189.903C16.9293 189.807 17.1619 189.665 17.3572 189.477C17.5526 189.285 17.7035 189.047 17.81 188.763L19.0245 189.104C18.8967 189.516 18.6818 189.878 18.38 190.19C18.0781 190.499 17.7053 190.741 17.2614 190.915C16.8175 191.085 16.3185 191.17 15.7646 191.17ZM25.1385 191.17C24.3999 191.17 23.7518 190.995 23.1942 190.643C22.6403 190.292 22.207 189.8 21.8945 189.168C21.5856 188.536 21.4311 187.797 21.4311 186.952C21.4311 186.099 21.5856 185.355 21.8945 184.72C22.207 184.084 22.6403 183.591 23.1942 183.239C23.7518 182.887 24.3999 182.712 25.1385 182.712C25.8771 182.712 26.5234 182.887 27.0774 183.239C27.6349 183.591 28.0682 184.084 28.3771 184.72C28.6896 185.355 28.8459 186.099 28.8459 186.952C28.8459 187.797 28.6896 188.536 28.3771 189.168C28.0682 189.8 27.6349 190.292 27.0774 190.643C26.5234 190.995 25.8771 191.17 25.1385 191.17ZM25.1385 190.041C25.6996 190.041 26.1612 189.897 26.5234 189.61C26.8857 189.322 27.1538 188.944 27.3278 188.475C27.5018 188.006 27.5888 187.499 27.5888 186.952C27.5888 186.405 27.5018 185.895 27.3278 185.423C27.1538 184.951 26.8857 184.569 26.5234 184.278C26.1612 183.987 25.6996 183.841 25.1385 183.841C24.5774 183.841 24.1158 183.987 23.7536 184.278C23.3913 184.569 23.1232 184.951 22.9492 185.423C22.7752 185.895 22.6882 186.405 22.6882 186.952C22.6882 187.499 22.7752 188.006 22.9492 188.475C23.1232 188.944 23.3913 189.322 23.7536 189.61C24.1158 189.897 24.5774 190.041 25.1385 190.041ZM31.5148 194.068V182.818H32.7293V184.118H32.8785C32.9708 183.976 33.0986 183.795 33.262 183.575C33.4289 183.351 33.6668 183.152 33.9758 182.978C34.2883 182.8 34.7108 182.712 35.2435 182.712C35.9324 182.712 36.5397 182.884 37.0653 183.228C37.5908 183.573 38.001 184.061 38.2957 184.693C38.5905 185.325 38.7378 186.071 38.7378 186.93C38.7378 187.797 38.5905 188.548 38.2957 189.184C38.001 189.816 37.5926 190.306 37.0706 190.654C36.5486 190.998 35.9466 191.17 35.2648 191.17C34.7393 191.17 34.3184 191.083 34.0024 190.909C33.6863 190.732 33.4431 190.531 33.2726 190.308C33.1022 190.08 32.9708 189.892 32.8785 189.743H32.7719V194.068H31.5148ZM32.7506 186.909C32.7506 187.527 32.8412 188.072 33.0223 188.544C33.2034 189.013 33.468 189.381 33.816 189.647C34.164 189.91 34.5901 190.041 35.0944 190.041C35.6199 190.041 36.0585 189.903 36.4101 189.626C36.7652 189.345 37.0315 188.969 37.2091 188.496C37.3902 188.021 37.4807 187.491 37.4807 186.909C37.4807 186.334 37.392 185.815 37.2144 185.354C37.0404 184.888 36.7758 184.521 36.4207 184.251C36.0692 183.978 35.627 183.841 35.0944 183.841C34.583 183.841 34.1533 183.971 33.8053 184.23C33.4573 184.485 33.1945 184.844 33.017 185.306C32.8394 185.764 32.7506 186.298 32.7506 186.909ZM42.6626 180.091V191H41.4055V180.091H42.6626ZM49.1454 191.17C48.3571 191.17 47.677 190.996 47.1053 190.648C46.5371 190.297 46.0985 189.807 45.7896 189.178C45.4842 188.546 45.3315 187.811 45.3315 186.973C45.3315 186.135 45.4842 185.396 45.7896 184.757C46.0985 184.114 46.5282 183.614 47.0787 183.255C47.6326 182.893 48.2789 182.712 49.0176 182.712C49.4437 182.712 49.8645 182.783 50.28 182.925C50.6955 183.067 51.0737 183.298 51.4146 183.617C51.7555 183.933 52.0272 184.352 52.2296 184.874C52.432 185.396 52.5332 186.039 52.5332 186.803V187.335H46.2264V186.249H51.2548C51.2548 185.787 51.1625 185.375 50.9778 185.013C50.7967 184.651 50.5375 184.365 50.2001 184.155C49.8663 183.946 49.4721 183.841 49.0176 183.841C48.5169 183.841 48.0836 183.965 47.7179 184.214C47.3556 184.459 47.0769 184.778 46.8816 185.173C46.6863 185.567 46.5886 185.989 46.5886 186.44V187.165C46.5886 187.783 46.6951 188.306 46.9082 188.736C47.1248 189.162 47.4249 189.487 47.8084 189.711C48.1919 189.931 48.6376 190.041 49.1454 190.041C49.4757 190.041 49.774 189.995 50.0403 189.903C50.3102 189.807 50.5428 189.665 50.7381 189.477C50.9334 189.285 51.0843 189.047 51.1909 188.763L52.4054 189.104C52.2775 189.516 52.0627 189.878 51.7608 190.19C51.459 190.499 51.0861 190.741 50.6422 190.915C50.1983 191.085 49.6994 191.17 49.1454 191.17ZM63.4881 191.17C62.7495 191.17 62.1014 190.995 61.5439 190.643C60.9899 190.292 60.5566 189.8 60.2441 189.168C59.9352 188.536 59.7807 187.797 59.7807 186.952C59.7807 186.099 59.9352 185.355 60.2441 184.72C60.5566 184.084 60.9899 183.591 61.5439 183.239C62.1014 182.887 62.7495 182.712 63.4881 182.712C64.2267 182.712 64.873 182.887 65.427 183.239C65.9846 183.591 66.4178 184.084 66.7267 184.72C67.0392 185.355 67.1955 186.099 67.1955 186.952C67.1955 187.797 67.0392 188.536 66.7267 189.168C66.4178 189.8 65.9846 190.292 65.427 190.643C64.873 190.995 64.2267 191.17 63.4881 191.17ZM63.4881 190.041C64.0492 190.041 64.5108 189.897 64.873 189.61C65.2353 189.322 65.5034 188.944 65.6774 188.475C65.8514 188.006 65.9384 187.499 65.9384 186.952C65.9384 186.405 65.8514 185.895 65.6774 185.423C65.5034 184.951 65.2353 184.569 64.873 184.278C64.5108 183.987 64.0492 183.841 63.4881 183.841C62.927 183.841 62.4654 183.987 62.1032 184.278C61.7409 184.569 61.4728 184.951 61.2988 185.423C61.1248 185.895 61.0378 186.405 61.0378 186.952C61.0378 187.499 61.1248 188.006 61.2988 188.475C61.4728 188.944 61.7409 189.322 62.1032 189.61C62.4654 189.897 62.927 190.041 63.4881 190.041ZM71.1215 186.078V191H69.8644V182.818H71.0789V184.097H71.1855C71.3772 183.681 71.6684 183.347 72.059 183.095C72.4497 182.839 72.9539 182.712 73.5718 182.712C74.1258 182.712 74.6105 182.825 75.026 183.053C75.4415 183.276 75.7646 183.617 75.9955 184.075C76.2263 184.53 76.3417 185.105 76.3417 185.801V191H75.0846V185.886C75.0846 185.244 74.9177 184.743 74.5839 184.384C74.2501 184.022 73.792 183.841 73.2096 183.841C72.8083 183.841 72.4497 183.928 72.1336 184.102C71.8211 184.276 71.5743 184.53 71.3932 184.864C71.2121 185.197 71.1215 185.602 71.1215 186.078ZM79.5593 191V180.091H80.8164V184.118H80.9229C81.0153 183.976 81.1431 183.795 81.3065 183.575C81.4734 183.351 81.7113 183.152 82.0202 182.978C82.3327 182.8 82.7553 182.712 83.288 182.712C83.9769 182.712 84.5842 182.884 85.1097 183.228C85.6353 183.573 86.0455 184.061 86.3402 184.693C86.6349 185.325 86.7823 186.071 86.7823 186.93C86.7823 187.797 86.6349 188.548 86.3402 189.184C86.0455 189.816 85.6371 190.306 85.1151 190.654C84.593 190.998 83.9911 191.17 83.3093 191.17C82.7837 191.17 82.3629 191.083 82.0469 190.909C81.7308 190.732 81.4876 190.531 81.3171 190.308C81.1467 190.08 81.0153 189.892 80.9229 189.743H80.7738V191H79.5593ZM80.7951 186.909C80.7951 187.527 80.8857 188.072 81.0668 188.544C81.2479 189.013 81.5124 189.381 81.8604 189.647C82.2085 189.91 82.6346 190.041 83.1388 190.041C83.6644 190.041 84.103 189.903 84.4545 189.626C84.8097 189.345 85.076 188.969 85.2536 188.496C85.4347 188.021 85.5252 187.491 85.5252 186.909C85.5252 186.334 85.4364 185.815 85.2589 185.354C85.0849 184.888 84.8203 184.521 84.4652 184.251C84.1136 183.978 83.6715 183.841 83.1388 183.841C82.6275 183.841 82.1978 183.971 81.8498 184.23C81.5018 184.485 81.239 184.844 81.0614 185.306C80.8839 185.764 80.7951 186.298 80.7951 186.909ZM92.7791 191.17C92.0405 191.17 91.3924 190.995 90.8349 190.643C90.2809 190.292 89.8477 189.8 89.5352 189.168C89.2262 188.536 89.0717 187.797 89.0717 186.952C89.0717 186.099 89.2262 185.355 89.5352 184.72C89.8477 184.084 90.2809 183.591 90.8349 183.239C91.3924 182.887 92.0405 182.712 92.7791 182.712C93.5178 182.712 94.1641 182.887 94.718 183.239C95.2756 183.591 95.7088 184.084 96.0178 184.72C96.3303 185.355 96.4865 186.099 96.4865 186.952C96.4865 187.797 96.3303 188.536 96.0178 189.168C95.7088 189.8 95.2756 190.292 94.718 190.643C94.1641 190.995 93.5178 191.17 92.7791 191.17ZM92.7791 190.041C93.3402 190.041 93.8018 189.897 94.1641 189.61C94.5263 189.322 94.7944 188.944 94.9684 188.475C95.1424 188.006 95.2294 187.499 95.2294 186.952C95.2294 186.405 95.1424 185.895 94.9684 185.423C94.7944 184.951 94.5263 184.569 94.1641 184.278C93.8018 183.987 93.3402 183.841 92.7791 183.841C92.218 183.841 91.7564 183.987 91.3942 184.278C91.032 184.569 90.7638 184.951 90.5898 185.423C90.4158 185.895 90.3288 186.405 90.3288 186.952C90.3288 187.499 90.4158 188.006 90.5898 188.475C90.7638 188.944 91.032 189.322 91.3942 189.61C91.7564 189.897 92.218 190.041 92.7791 190.041ZM101.563 191.192C101.045 191.192 100.574 191.094 100.152 190.899C99.729 190.7 99.3934 190.414 99.1448 190.041C98.8962 189.665 98.7719 189.21 98.7719 188.678C98.7719 188.209 98.8643 187.829 99.0489 187.538C99.2336 187.243 99.4804 187.012 99.7893 186.845C100.098 186.678 100.439 186.554 100.812 186.472C101.188 186.387 101.567 186.32 101.947 186.27C102.444 186.206 102.847 186.158 103.156 186.126C103.468 186.091 103.696 186.032 103.838 185.95C103.983 185.869 104.056 185.727 104.056 185.524V185.482C104.056 184.956 103.912 184.548 103.625 184.256C103.34 183.965 102.909 183.82 102.33 183.82C101.73 183.82 101.259 183.951 100.919 184.214C100.578 184.477 100.338 184.757 100.199 185.055L99.0063 184.629C99.2194 184.132 99.5035 183.745 99.8586 183.468C100.217 183.187 100.608 182.992 101.03 182.882C101.457 182.768 101.876 182.712 102.288 182.712C102.55 182.712 102.852 182.744 103.193 182.808C103.538 182.868 103.87 182.994 104.189 183.186C104.512 183.377 104.78 183.667 104.994 184.054C105.207 184.441 105.313 184.96 105.313 185.609V191H104.056V189.892H103.992C103.907 190.07 103.765 190.26 103.566 190.462C103.367 190.664 103.103 190.837 102.772 190.979C102.442 191.121 102.039 191.192 101.563 191.192ZM101.755 190.062C102.252 190.062 102.671 189.965 103.012 189.77C103.356 189.574 103.616 189.322 103.79 189.013C103.967 188.704 104.056 188.379 104.056 188.038V186.888C104.003 186.952 103.886 187.01 103.704 187.064C103.527 187.113 103.321 187.158 103.087 187.197C102.856 187.232 102.63 187.264 102.41 187.293C102.193 187.317 102.018 187.339 101.883 187.357C101.556 187.399 101.251 187.468 100.967 187.564C100.686 187.657 100.459 187.797 100.285 187.985C100.114 188.17 100.029 188.422 100.029 188.741C100.029 189.178 100.191 189.509 100.514 189.732C100.84 189.952 101.254 190.062 101.755 190.062ZM108.358 191V182.818H109.572V184.054H109.657C109.806 183.649 110.076 183.321 110.467 183.069C110.858 182.816 111.298 182.69 111.788 182.69C111.88 182.69 111.996 182.692 112.134 182.696C112.273 182.699 112.377 182.705 112.449 182.712V183.99C112.406 183.979 112.308 183.963 112.156 183.942C112.006 183.917 111.848 183.905 111.681 183.905C111.284 183.905 110.929 183.988 110.616 184.155C110.307 184.319 110.062 184.546 109.881 184.837C109.703 185.125 109.615 185.453 109.615 185.822V191H108.358ZM117.529 191.17C116.847 191.17 116.245 190.998 115.723 190.654C115.201 190.306 114.793 189.816 114.498 189.184C114.203 188.548 114.056 187.797 114.056 186.93C114.056 186.071 114.203 185.325 114.498 184.693C114.793 184.061 115.203 183.573 115.729 183.228C116.254 182.884 116.862 182.712 117.55 182.712C118.083 182.712 118.504 182.8 118.813 182.978C119.125 183.152 119.363 183.351 119.527 183.575C119.694 183.795 119.823 183.976 119.915 184.118H120.022V180.091H121.279V191H120.065V189.743H119.915C119.823 189.892 119.692 190.08 119.521 190.308C119.351 190.531 119.108 190.732 118.792 190.909C118.475 191.083 118.055 191.17 117.529 191.17ZM117.7 190.041C118.204 190.041 118.63 189.91 118.978 189.647C119.326 189.381 119.591 189.013 119.772 188.544C119.953 188.072 120.043 187.527 120.043 186.909C120.043 186.298 119.955 185.764 119.777 185.306C119.599 184.844 119.337 184.485 118.989 184.23C118.641 183.971 118.211 183.841 117.7 183.841C117.167 183.841 116.723 183.978 116.368 184.251C116.016 184.521 115.752 184.888 115.574 185.354C115.4 185.815 115.313 186.334 115.313 186.909C115.313 187.491 115.402 188.021 115.58 188.496C115.761 188.969 116.027 189.345 116.379 189.626C116.734 189.903 117.174 190.041 117.7 190.041ZM127.936 191.17C127.148 191.17 126.468 190.996 125.896 190.648C125.328 190.297 124.89 189.807 124.581 189.178C124.275 188.546 124.123 187.811 124.123 186.973C124.123 186.135 124.275 185.396 124.581 184.757C124.89 184.114 125.319 183.614 125.87 183.255C126.424 182.893 127.07 182.712 127.809 182.712C128.235 182.712 128.656 182.783 129.071 182.925C129.487 183.067 129.865 183.298 130.206 183.617C130.547 183.933 130.818 184.352 131.021 184.874C131.223 185.396 131.324 186.039 131.324 186.803V187.335H125.017V186.249H130.046C130.046 185.787 129.953 185.375 129.769 185.013C129.588 184.651 129.328 184.365 128.991 184.155C128.657 183.946 128.263 183.841 127.809 183.841C127.308 183.841 126.875 183.965 126.509 184.214C126.147 184.459 125.868 184.778 125.673 185.173C125.477 185.567 125.38 185.989 125.38 186.44V187.165C125.38 187.783 125.486 188.306 125.699 188.736C125.916 189.162 126.216 189.487 126.599 189.711C126.983 189.931 127.429 190.041 127.936 190.041C128.267 190.041 128.565 189.995 128.831 189.903C129.101 189.807 129.334 189.665 129.529 189.477C129.724 189.285 129.875 189.047 129.982 188.763L131.196 189.104C131.069 189.516 130.854 189.878 130.552 190.19C130.25 190.499 129.877 190.741 129.433 190.915C128.989 191.085 128.49 191.17 127.936 191.17ZM137.076 191.17C136.394 191.17 135.792 190.998 135.27 190.654C134.748 190.306 134.34 189.816 134.045 189.184C133.75 188.548 133.603 187.797 133.603 186.93C133.603 186.071 133.75 185.325 134.045 184.693C134.34 184.061 134.75 183.573 135.276 183.228C135.801 182.884 136.408 182.712 137.097 182.712C137.63 182.712 138.051 182.8 138.36 182.978C138.672 183.152 138.91 183.351 139.074 183.575C139.24 183.795 139.37 183.976 139.462 184.118H139.569V180.091H140.826V191H139.612V189.743H139.462C139.37 189.892 139.239 190.08 139.068 190.308C138.898 190.531 138.654 190.732 138.338 190.909C138.022 191.083 137.602 191.17 137.076 191.17ZM137.246 190.041C137.751 190.041 138.177 189.91 138.525 189.647C138.873 189.381 139.137 189.013 139.319 188.544C139.5 188.072 139.59 187.527 139.59 186.909C139.59 186.298 139.501 185.764 139.324 185.306C139.146 184.844 138.884 184.485 138.536 184.23C138.188 183.971 137.758 183.841 137.246 183.841C136.714 183.841 136.27 183.978 135.915 184.251C135.563 184.521 135.299 184.888 135.121 185.354C134.947 185.815 134.86 186.334 134.86 186.909C134.86 187.491 134.949 188.021 135.126 188.496C135.308 188.969 135.574 189.345 135.925 189.626C136.281 189.903 136.721 190.041 137.246 190.041Z" fill="#A0A3BD"/>
<rect x="411" width="96" height="96" rx="16" fill="#262338"/>
<path d="M439.464 33.4437C439.164 33.8032 439 34.2562 439 34.7241V67C439 68.6569 440.343 70 442 70H476C477.657 70 479 68.6569 479 67V34.7241C479 34.2562 478.836 33.8032 478.536 33.4437L472.933 26.7196C472.553 26.2636 471.99 26 471.397 26H446.603C446.01 26 445.447 26.2636 445.067 26.7196L439.464 33.4437Z" stroke="#1AECA4" stroke-width="2"/>
<path d="M439 35H479" stroke="#1AECA4" stroke-width="2"/>
<path d="M467 44C467 48.4183 463.418 52 459 52C454.582 52 451 48.4183 451 44" stroke="#1AECA4" stroke-width="2" stroke-linecap="round"/>
<path d="M423.36 126V154H416.88V131.2H411.28V126H423.36ZM439.064 125.52C442.984 125.52 446.051 126.72 448.264 129.12C450.477 131.493 451.584 134.92 451.584 139.4C451.584 142.573 450.984 145.293 449.784 147.56C448.611 149.827 446.944 151.547 444.784 152.72C442.624 153.893 440.131 154.48 437.304 154.48C435.811 154.48 434.384 154.32 433.024 154C431.664 153.653 430.504 153.173 429.544 152.56L431.944 147.8C433.304 148.733 435.051 149.2 437.184 149.2C439.557 149.2 441.437 148.507 442.824 147.12C444.211 145.707 444.957 143.68 445.064 141.04C443.384 142.72 441.064 143.56 438.104 143.56C436.317 143.56 434.691 143.2 433.224 142.48C431.757 141.76 430.597 140.747 429.744 139.44C428.891 138.107 428.464 136.573 428.464 134.84C428.464 132.973 428.931 131.333 429.864 129.92C430.797 128.507 432.064 127.427 433.664 126.68C435.291 125.907 437.091 125.52 439.064 125.52ZM439.544 138.72C440.957 138.72 442.104 138.333 442.984 137.56C443.891 136.76 444.344 135.747 444.344 134.52C444.344 133.293 443.904 132.293 443.024 131.52C442.171 130.747 440.984 130.36 439.464 130.36C438.077 130.36 436.944 130.733 436.064 131.48C435.211 132.227 434.784 133.24 434.784 134.52C434.784 135.8 435.211 136.827 436.064 137.6C436.944 138.347 438.104 138.72 439.544 138.72ZM458.865 154.32C457.772 154.32 456.852 153.947 456.105 153.2C455.358 152.453 454.985 151.52 454.985 150.4C454.985 149.253 455.358 148.333 456.105 147.64C456.852 146.92 457.772 146.56 458.865 146.56C459.958 146.56 460.878 146.92 461.625 147.64C462.372 148.333 462.745 149.253 462.745 150.4C462.745 151.52 462.372 152.453 461.625 153.2C460.878 153.947 459.958 154.32 458.865 154.32ZM478.146 154.48C475.826 154.48 473.759 153.907 471.946 152.76C470.133 151.613 468.706 149.96 467.666 147.8C466.653 145.613 466.146 143.013 466.146 140C466.146 136.987 466.653 134.4 467.666 132.24C468.706 130.053 470.133 128.387 471.946 127.24C473.759 126.093 475.826 125.52 478.146 125.52C480.466 125.52 482.533 126.093 484.346 127.24C486.159 128.387 487.573 130.053 488.586 132.24C489.626 134.4 490.146 136.987 490.146 140C490.146 143.013 489.626 145.613 488.586 147.8C487.573 149.96 486.159 151.613 484.346 152.76C482.533 153.907 480.466 154.48 478.146 154.48ZM478.146 149C479.853 149 481.186 148.267 482.146 146.8C483.133 145.333 483.626 143.067 483.626 140C483.626 136.933 483.133 134.667 482.146 133.2C481.186 131.733 479.853 131 478.146 131C476.466 131 475.133 131.733 474.146 133.2C473.186 134.667 472.706 136.933 472.706 140C472.706 143.067 473.186 145.333 474.146 146.8C475.133 148.267 476.466 149 478.146 149ZM504.86 126V154H498.38V131.2H492.78V126H504.86ZM532.644 126V130.2L522.244 154H515.204L525.244 131.28H515.964V135.84H510.204V126H532.644Z" fill="#FCFCFC"/>
<path d="M412.321 191V180.091H416.135C416.895 180.091 417.522 180.222 418.015 180.485C418.509 180.744 418.876 181.094 419.118 181.534C419.359 181.971 419.48 182.456 419.48 182.989C419.48 183.457 419.397 183.844 419.23 184.15C419.066 184.455 418.85 184.697 418.58 184.874C418.314 185.052 418.024 185.183 417.712 185.268V185.375C418.045 185.396 418.381 185.513 418.718 185.727C419.056 185.94 419.338 186.245 419.565 186.643C419.793 187.04 419.906 187.527 419.906 188.102C419.906 188.649 419.782 189.141 419.533 189.578C419.285 190.015 418.892 190.361 418.356 190.616C417.82 190.872 417.122 191 416.263 191H412.321ZM413.642 189.828H416.263C417.126 189.828 417.738 189.661 418.1 189.327C418.466 188.99 418.649 188.582 418.649 188.102C418.649 187.733 418.555 187.392 418.367 187.08C418.179 186.763 417.911 186.511 417.562 186.323C417.214 186.131 416.803 186.036 416.327 186.036H413.642V189.828ZM413.642 184.885H416.092C416.49 184.885 416.849 184.807 417.168 184.651C417.491 184.494 417.747 184.274 417.935 183.99C418.127 183.706 418.223 183.372 418.223 182.989C418.223 182.509 418.056 182.103 417.722 181.769C417.388 181.431 416.859 181.263 416.135 181.263H413.642V184.885ZM425.98 191.17C425.242 191.17 424.594 190.995 424.036 190.643C423.482 190.292 423.049 189.8 422.736 189.168C422.427 188.536 422.273 187.797 422.273 186.952C422.273 186.099 422.427 185.355 422.736 184.72C423.049 184.084 423.482 183.591 424.036 183.239C424.594 182.887 425.242 182.712 425.98 182.712C426.719 182.712 427.365 182.887 427.919 183.239C428.477 183.591 428.91 184.084 429.219 184.72C429.531 185.355 429.688 186.099 429.688 186.952C429.688 187.797 429.531 188.536 429.219 189.168C428.91 189.8 428.477 190.292 427.919 190.643C427.365 190.995 426.719 191.17 425.98 191.17ZM425.98 190.041C426.541 190.041 427.003 189.897 427.365 189.61C427.727 189.322 427.996 188.944 428.17 188.475C428.344 188.006 428.431 187.499 428.431 186.952C428.431 186.405 428.344 185.895 428.17 185.423C427.996 184.951 427.727 184.569 427.365 184.278C427.003 183.987 426.541 183.841 425.98 183.841C425.419 183.841 424.958 183.987 424.595 184.278C424.233 184.569 423.965 184.951 423.791 185.423C423.617 185.895 423.53 186.405 423.53 186.952C423.53 187.499 423.617 188.006 423.791 188.475C423.965 188.944 424.233 189.322 424.595 189.61C424.958 189.897 425.419 190.041 425.98 190.041ZM435.68 191.17C434.942 191.17 434.294 190.995 433.736 190.643C433.182 190.292 432.749 189.8 432.437 189.168C432.128 188.536 431.973 187.797 431.973 186.952C431.973 186.099 432.128 185.355 432.437 184.72C432.749 184.084 433.182 183.591 433.736 183.239C434.294 182.887 434.942 182.712 435.68 182.712C436.419 182.712 437.065 182.887 437.619 183.239C438.177 183.591 438.61 184.084 438.919 184.72C439.232 185.355 439.388 186.099 439.388 186.952C439.388 187.797 439.232 188.536 438.919 189.168C438.61 189.8 438.177 190.292 437.619 190.643C437.065 190.995 436.419 191.17 435.68 191.17ZM435.68 190.041C436.242 190.041 436.703 189.897 437.065 189.61C437.428 189.322 437.696 188.944 437.87 188.475C438.044 188.006 438.131 187.499 438.131 186.952C438.131 186.405 438.044 185.895 437.87 185.423C437.696 184.951 437.428 184.569 437.065 184.278C436.703 183.987 436.242 183.841 435.68 183.841C435.119 183.841 434.658 183.987 434.296 184.278C433.933 184.569 433.665 184.951 433.491 185.423C433.317 185.895 433.23 186.405 433.23 186.952C433.23 187.499 433.317 188.006 433.491 188.475C433.665 188.944 433.933 189.322 434.296 189.61C434.658 189.897 435.119 190.041 435.68 190.041ZM443.229 188.017L443.207 186.462H443.463L447.043 182.818H448.598L444.784 186.675H444.678L443.229 188.017ZM442.057 191V180.091H443.314V191H442.057ZM447.256 191L444.06 186.952L444.955 186.078L448.854 191H447.256ZM456.761 184.651L455.632 184.97C455.561 184.782 455.456 184.599 455.318 184.422C455.183 184.24 454.998 184.091 454.764 183.974C454.53 183.857 454.229 183.798 453.864 183.798C453.363 183.798 452.946 183.914 452.612 184.145C452.282 184.372 452.117 184.661 452.117 185.013C452.117 185.325 452.23 185.572 452.457 185.753C452.685 185.934 453.04 186.085 453.523 186.206L454.737 186.504C455.469 186.682 456.014 186.953 456.373 187.319C456.731 187.681 456.911 188.148 456.911 188.72C456.911 189.189 456.776 189.608 456.506 189.977C456.239 190.347 455.867 190.638 455.387 190.851C454.908 191.064 454.35 191.17 453.715 191.17C452.88 191.17 452.189 190.989 451.642 190.627C451.096 190.265 450.749 189.736 450.604 189.04L451.797 188.741C451.911 189.182 452.125 189.512 452.441 189.732C452.761 189.952 453.178 190.062 453.693 190.062C454.279 190.062 454.744 189.938 455.089 189.69C455.437 189.437 455.611 189.136 455.611 188.784C455.611 188.5 455.511 188.262 455.313 188.07C455.114 187.875 454.808 187.729 454.396 187.634L453.033 187.314C452.283 187.136 451.733 186.861 451.381 186.488C451.033 186.112 450.859 185.641 450.859 185.077C450.859 184.615 450.989 184.207 451.248 183.852C451.511 183.496 451.868 183.218 452.319 183.015C452.774 182.813 453.288 182.712 453.864 182.712C454.673 182.712 455.309 182.889 455.771 183.244C456.236 183.599 456.566 184.068 456.761 184.651ZM464.522 191V182.818H465.736V184.097H465.843C466.013 183.66 466.288 183.321 466.668 183.079C467.048 182.834 467.505 182.712 468.037 182.712C468.577 182.712 469.026 182.834 469.385 183.079C469.747 183.321 470.029 183.66 470.232 184.097H470.317C470.527 183.674 470.841 183.338 471.26 183.09C471.679 182.838 472.181 182.712 472.767 182.712C473.499 182.712 474.097 182.941 474.562 183.399C475.028 183.853 475.26 184.562 475.26 185.524V191H474.003V185.524C474.003 184.92 473.838 184.489 473.508 184.23C473.178 183.971 472.789 183.841 472.341 183.841C471.766 183.841 471.32 184.015 471.004 184.363C470.688 184.707 470.53 185.144 470.53 185.673V191H469.252V185.396C469.252 184.931 469.101 184.556 468.799 184.272C468.497 183.985 468.108 183.841 467.632 183.841C467.306 183.841 467 183.928 466.716 184.102C466.436 184.276 466.208 184.517 466.034 184.826C465.864 185.132 465.779 185.485 465.779 185.886V191H464.522ZM478.309 191V182.818H479.566V191H478.309ZM478.948 181.455C478.703 181.455 478.492 181.371 478.314 181.204C478.14 181.037 478.053 180.837 478.053 180.602C478.053 180.368 478.14 180.167 478.314 180C478.492 179.833 478.703 179.75 478.948 179.75C479.193 179.75 479.403 179.833 479.577 180C479.754 180.167 479.843 180.368 479.843 180.602C479.843 180.837 479.754 181.037 479.577 181.204C479.403 181.371 479.193 181.455 478.948 181.455ZM483.875 186.078V191H482.618V182.818H483.833V184.097H483.939C484.131 183.681 484.422 183.347 484.813 183.095C485.204 182.839 485.708 182.712 486.326 182.712C486.88 182.712 487.364 182.825 487.78 183.053C488.195 183.276 488.519 183.617 488.749 184.075C488.98 184.53 489.096 185.105 489.096 185.801V191H487.839V185.886C487.839 185.244 487.672 184.743 487.338 184.384C487.004 184.022 486.546 183.841 485.964 183.841C485.562 183.841 485.204 183.928 484.888 184.102C484.575 184.276 484.328 184.53 484.147 184.864C483.966 185.197 483.875 185.602 483.875 186.078ZM495.701 182.818V183.884H491.461V182.818H495.701ZM492.697 180.858H493.954V188.656C493.954 189.011 494.005 189.278 494.108 189.455C494.215 189.629 494.35 189.746 494.513 189.807C494.68 189.864 494.856 189.892 495.04 189.892C495.179 189.892 495.293 189.885 495.381 189.871C495.47 189.853 495.541 189.839 495.594 189.828L495.85 190.957C495.765 190.989 495.646 191.021 495.493 191.053C495.341 191.089 495.147 191.107 494.913 191.107C494.558 191.107 494.21 191.03 493.869 190.877C493.531 190.725 493.251 190.492 493.027 190.18C492.807 189.867 492.697 189.473 492.697 188.997V180.858ZM501.684 191.17C500.896 191.17 500.216 190.996 499.644 190.648C499.076 190.297 498.638 189.807 498.329 189.178C498.023 188.546 497.871 187.811 497.871 186.973C497.871 186.135 498.023 185.396 498.329 184.757C498.638 184.114 499.067 183.614 499.618 183.255C500.172 182.893 500.818 182.712 501.557 182.712C501.983 182.712 502.404 182.783 502.819 182.925C503.235 183.067 503.613 183.298 503.954 183.617C504.295 183.933 504.566 184.352 504.769 184.874C504.971 185.396 505.072 186.039 505.072 186.803V187.335H498.765V186.249H503.794C503.794 185.787 503.702 185.375 503.517 185.013C503.336 184.651 503.077 184.365 502.739 184.155C502.405 183.946 502.011 183.841 501.557 183.841C501.056 183.841 500.623 183.965 500.257 184.214C499.895 184.459 499.616 184.778 499.421 185.173C499.225 185.567 499.128 185.989 499.128 186.44V187.165C499.128 187.783 499.234 188.306 499.447 188.736C499.664 189.162 499.964 189.487 500.347 189.711C500.731 189.931 501.177 190.041 501.684 190.041C502.015 190.041 502.313 189.995 502.579 189.903C502.849 189.807 503.082 189.665 503.277 189.477C503.472 189.285 503.623 189.047 503.73 188.763L504.944 189.104C504.817 189.516 504.602 189.878 504.3 190.19C503.998 190.499 503.625 190.741 503.181 190.915C502.737 191.085 502.238 191.17 501.684 191.17ZM510.824 191.17C510.142 191.17 509.54 190.998 509.018 190.654C508.496 190.306 508.088 189.816 507.793 189.184C507.498 188.548 507.351 187.797 507.351 186.93C507.351 186.071 507.498 185.325 507.793 184.693C508.088 184.061 508.498 183.573 509.024 183.228C509.549 182.884 510.156 182.712 510.845 182.712C511.378 182.712 511.799 182.8 512.108 182.978C512.42 183.152 512.658 183.351 512.822 183.575C512.988 183.795 513.118 183.976 513.21 184.118H513.317V180.091H514.574V191H513.36V189.743H513.21C513.118 189.892 512.987 190.08 512.816 190.308C512.646 190.531 512.403 190.732 512.086 190.909C511.77 191.083 511.35 191.17 510.824 191.17ZM510.994 190.041C511.499 190.041 511.925 189.91 512.273 189.647C512.621 189.381 512.885 189.013 513.067 188.544C513.248 188.072 513.338 187.527 513.338 186.909C513.338 186.298 513.249 185.764 513.072 185.306C512.894 184.844 512.632 184.485 512.284 184.23C511.936 183.971 511.506 183.841 510.994 183.841C510.462 183.841 510.018 183.978 509.663 184.251C509.311 184.521 509.047 184.888 508.869 185.354C508.695 185.815 508.608 186.334 508.608 186.909C508.608 187.491 508.697 188.021 508.874 188.496C509.056 188.969 509.322 189.345 509.673 189.626C510.029 189.903 510.469 190.041 510.994 190.041Z" fill="#A0A3BD"/>
<rect x="822" width="96" height="96" rx="16" fill="#262338"/>
<path d="M880.501 38.1925C880.501 38.1925 879.188 31.8311 870 31.8311C860.812 31.8311 858.373 35.6873 858.187 38.3435C858 40.9998 858 46.9998 870 46.9998C882 46.9998 882 53.9998 882 54.9998C882 55.9998 881.813 63.6383 870 63.6383C858.187 63.6383 858.187 57.2768 858.187 57.2768" stroke="#1AECA4" stroke-width="2" stroke-linecap="round" stroke-linejoin="round"/>
<path d="M870 26V70" stroke="#1AECA4" stroke-width="2" stroke-linecap="round" stroke-linejoin="round"/>
<path d="M845.48 126V130.2L835.08 154H828.04L838.08 131.28H828.8V135.84H823.04V126H845.48ZM862.171 137.4C864.625 137.8 866.505 138.72 867.811 140.16C869.118 141.573 869.771 143.333 869.771 145.44C869.771 147.067 869.345 148.573 868.491 149.96C867.638 151.32 866.331 152.413 864.571 153.24C862.838 154.067 860.705 154.48 858.171 154.48C856.198 154.48 854.251 154.227 852.331 153.72C850.438 153.187 848.825 152.44 847.491 151.48L850.011 146.52C851.078 147.32 852.305 147.947 853.691 148.4C855.105 148.827 856.545 149.04 858.011 149.04C859.638 149.04 860.918 148.733 861.851 148.12C862.785 147.48 863.251 146.587 863.251 145.44C863.251 143.147 861.505 142 858.011 142H855.051V137.72L860.811 131.2H848.891V126H868.491V130.2L862.171 137.4ZM892.923 139.28C894.31 139.973 895.363 140.88 896.083 142C896.83 143.12 897.203 144.413 897.203 145.88C897.203 147.613 896.71 149.133 895.723 150.44C894.736 151.72 893.35 152.72 891.563 153.44C889.776 154.133 887.71 154.48 885.363 154.48C883.016 154.48 880.95 154.133 879.163 153.44C877.403 152.72 876.03 151.72 875.043 150.44C874.083 149.133 873.603 147.613 873.603 145.88C873.603 144.413 873.963 143.12 874.683 142C875.43 140.88 876.483 139.973 877.843 139.28C876.803 138.64 876.003 137.84 875.443 136.88C874.883 135.893 874.603 134.773 874.603 133.52C874.603 131.893 875.056 130.48 875.963 129.28C876.87 128.08 878.136 127.16 879.763 126.52C881.39 125.853 883.256 125.52 885.363 125.52C887.496 125.52 889.376 125.853 891.003 126.52C892.656 127.16 893.936 128.08 894.843 129.28C895.75 130.48 896.203 131.893 896.203 133.52C896.203 134.773 895.923 135.893 895.363 136.88C894.803 137.84 893.99 138.64 892.923 139.28ZM885.363 130.28C884.056 130.28 883.003 130.6 882.203 131.24C881.43 131.853 881.043 132.707 881.043 133.8C881.043 134.867 881.43 135.707 882.203 136.32C882.976 136.933 884.03 137.24 885.363 137.24C886.696 137.24 887.763 136.933 888.563 136.32C889.363 135.707 889.763 134.867 889.763 133.8C889.763 132.707 889.363 131.853 888.563 131.24C887.763 130.6 886.696 130.28 885.363 130.28ZM885.363 149.72C886.99 149.72 888.27 149.36 889.203 148.64C890.163 147.893 890.643 146.907 890.643 145.68C890.643 144.453 890.163 143.48 889.203 142.76C888.27 142.04 886.99 141.68 885.363 141.68C883.763 141.68 882.496 142.04 881.563 142.76C880.63 143.48 880.163 144.453 880.163 145.68C880.163 146.933 880.63 147.92 881.563 148.64C882.496 149.36 883.763 149.72 885.363 149.72Z" fill="#FCFCFC"/>
<path d="M823.321 180.091H824.898L828.605 189.146H828.733L832.44 180.091H834.017V191H832.781V182.712H832.675L829.266 191H828.072L824.663 182.712H824.557V191H823.321V180.091ZM839.653 191.192C839.134 191.192 838.664 191.094 838.241 190.899C837.819 190.7 837.483 190.414 837.235 190.041C836.986 189.665 836.862 189.21 836.862 188.678C836.862 188.209 836.954 187.829 837.139 187.538C837.323 187.243 837.57 187.012 837.879 186.845C838.188 186.678 838.529 186.554 838.902 186.472C839.278 186.387 839.657 186.32 840.036 186.27C840.534 186.206 840.937 186.158 841.246 186.126C841.558 186.091 841.785 186.032 841.927 185.95C842.073 185.869 842.146 185.727 842.146 185.524V185.482C842.146 184.956 842.002 184.548 841.714 184.256C841.43 183.965 840.999 183.82 840.42 183.82C839.82 183.82 839.349 183.951 839.008 184.214C838.668 184.477 838.428 184.757 838.289 185.055L837.096 184.629C837.309 184.132 837.593 183.745 837.948 183.468C838.307 183.187 838.698 182.992 839.12 182.882C839.546 182.768 839.965 182.712 840.377 182.712C840.64 182.712 840.942 182.744 841.283 182.808C841.627 182.868 841.959 182.994 842.279 183.186C842.602 183.377 842.87 183.667 843.083 184.054C843.296 184.441 843.403 184.96 843.403 185.609V191H842.146V189.892H842.082C841.997 190.07 841.855 190.26 841.656 190.462C841.457 190.664 841.192 190.837 840.862 190.979C840.532 191.121 840.129 191.192 839.653 191.192ZM839.845 190.062C840.342 190.062 840.761 189.965 841.102 189.77C841.446 189.574 841.706 189.322 841.88 189.013C842.057 188.704 842.146 188.379 842.146 188.038V186.888C842.093 186.952 841.975 187.01 841.794 187.064C841.617 187.113 841.411 187.158 841.176 187.197C840.946 187.232 840.72 187.264 840.5 187.293C840.283 187.317 840.108 187.339 839.973 187.357C839.646 187.399 839.34 187.468 839.056 187.564C838.776 187.657 838.549 187.797 838.375 187.985C838.204 188.17 838.119 188.422 838.119 188.741C838.119 189.178 838.28 189.509 838.604 189.732C838.93 189.952 839.344 190.062 839.845 190.062ZM850.006 182.818V183.884H845.766V182.818H850.006ZM847.001 180.858H848.259V188.656C848.259 189.011 848.31 189.278 848.413 189.455C848.52 189.629 848.654 189.746 848.818 189.807C848.985 189.864 849.161 189.892 849.345 189.892C849.484 189.892 849.597 189.885 849.686 189.871C849.775 189.853 849.846 189.839 849.899 189.828L850.155 190.957C850.07 190.989 849.951 191.021 849.798 191.053C849.645 191.089 849.452 191.107 849.217 191.107C848.862 191.107 848.514 191.03 848.173 190.877C847.836 190.725 847.555 190.492 847.332 190.18C847.112 189.867 847.001 189.473 847.001 188.997V180.858ZM852.647 191V182.818H853.904V191H852.647ZM853.286 181.455C853.041 181.455 852.83 181.371 852.652 181.204C852.478 181.037 852.391 180.837 852.391 180.602C852.391 180.368 852.478 180.167 852.652 180C852.83 179.833 853.041 179.75 853.286 179.75C853.531 179.75 853.74 179.833 853.914 180C854.092 180.167 854.181 180.368 854.181 180.602C854.181 180.837 854.092 181.037 853.914 181.204C853.74 181.371 853.531 181.455 853.286 181.455ZM860.28 191.17C859.513 191.17 858.853 190.989 858.299 190.627C857.745 190.265 857.318 189.766 857.02 189.13C856.722 188.495 856.573 187.768 856.573 186.952C856.573 186.121 856.725 185.387 857.031 184.752C857.34 184.113 857.769 183.614 858.32 183.255C858.874 182.893 859.52 182.712 860.259 182.712C860.834 182.712 861.353 182.818 861.814 183.031C862.276 183.244 862.654 183.543 862.949 183.926C863.244 184.31 863.426 184.757 863.497 185.268H862.24C862.144 184.896 861.931 184.565 861.601 184.278C861.274 183.987 860.834 183.841 860.28 183.841C859.79 183.841 859.36 183.969 858.991 184.224C858.625 184.477 858.339 184.833 858.133 185.295C857.931 185.753 857.83 186.291 857.83 186.909C857.83 187.541 857.929 188.092 858.128 188.56C858.331 189.029 858.615 189.393 858.98 189.652C859.35 189.912 859.783 190.041 860.28 190.041C860.607 190.041 860.903 189.984 861.17 189.871C861.436 189.757 861.661 189.594 861.846 189.381C862.031 189.168 862.162 188.912 862.24 188.614H863.497C863.426 189.097 863.251 189.532 862.97 189.919C862.693 190.302 862.326 190.608 861.867 190.835C861.413 191.059 860.884 191.17 860.28 191.17ZM871.881 184.651L870.751 184.97C870.68 184.782 870.576 184.599 870.437 184.422C870.302 184.24 870.117 184.091 869.883 183.974C869.649 183.857 869.349 183.798 868.983 183.798C868.482 183.798 868.065 183.914 867.731 184.145C867.401 184.372 867.236 184.661 867.236 185.013C867.236 185.325 867.349 185.572 867.577 185.753C867.804 185.934 868.159 186.085 868.642 186.206L869.856 186.504C870.588 186.682 871.133 186.953 871.492 187.319C871.85 187.681 872.03 188.148 872.03 188.72C872.03 189.189 871.895 189.608 871.625 189.977C871.359 190.347 870.986 190.638 870.506 190.851C870.027 191.064 869.469 191.17 868.834 191.17C867.999 191.17 867.309 190.989 866.762 190.627C866.215 190.265 865.869 189.736 865.723 189.04L866.916 188.741C867.03 189.182 867.245 189.512 867.561 189.732C867.88 189.952 868.297 190.062 868.812 190.062C869.398 190.062 869.864 189.938 870.208 189.69C870.556 189.437 870.73 189.136 870.73 188.784C870.73 188.5 870.631 188.262 870.432 188.07C870.233 187.875 869.927 187.729 869.516 187.634L868.152 187.314C867.403 187.136 866.852 186.861 866.501 186.488C866.153 186.112 865.979 185.641 865.979 185.077C865.979 184.615 866.108 184.207 866.367 183.852C866.63 183.496 866.987 183.218 867.438 183.015C867.893 182.813 868.408 182.712 868.983 182.712C869.793 182.712 870.428 182.889 870.89 183.244C871.355 183.599 871.685 184.068 871.881 184.651ZM882.73 191.17C882.048 191.17 881.447 190.998 880.925 190.654C880.403 190.306 879.994 189.816 879.699 189.184C879.405 188.548 879.257 187.797 879.257 186.93C879.257 186.071 879.405 185.325 879.699 184.693C879.994 184.061 880.404 183.573 880.93 183.228C881.455 182.884 882.063 182.712 882.752 182.712C883.284 182.712 883.705 182.8 884.014 182.978C884.327 183.152 884.564 183.351 884.728 183.575C884.895 183.795 885.024 183.976 885.117 184.118H885.223V180.091H886.48V191H885.266V189.743H885.117C885.024 189.892 884.893 190.08 884.722 190.308C884.552 190.531 884.309 190.732 883.993 190.909C883.677 191.083 883.256 191.17 882.73 191.17ZM882.901 190.041C883.405 190.041 883.831 189.91 884.179 189.647C884.527 189.381 884.792 189.013 884.973 188.544C885.154 188.072 885.244 187.527 885.244 186.909C885.244 186.298 885.156 185.764 884.978 185.306C884.801 184.844 884.538 184.485 884.19 184.23C883.842 183.971 883.412 183.841 882.901 183.841C882.368 183.841 881.924 183.978 881.569 184.251C881.218 184.521 880.953 184.888 880.775 185.354C880.601 185.815 880.514 186.334 880.514 186.909C880.514 187.491 880.603 188.021 880.781 188.496C880.962 188.969 881.228 189.345 881.58 189.626C881.935 189.903 882.375 190.041 882.901 190.041ZM893.031 191.17C892.292 191.17 891.644 190.995 891.087 190.643C890.533 190.292 890.1 189.8 889.787 189.168C889.478 188.536 889.324 187.797 889.324 186.952C889.324 186.099 889.478 185.355 889.787 184.72C890.1 184.084 890.533 183.591 891.087 183.239C891.644 182.887 892.292 182.712 893.031 182.712C893.77 182.712 894.416 182.887 894.97 183.239C895.528 183.591 895.961 184.084 896.27 184.72C896.582 185.355 896.738 186.099 896.738 186.952C896.738 187.797 896.582 188.536 896.27 189.168C895.961 189.8 895.528 190.292 894.97 190.643C894.416 190.995 893.77 191.17 893.031 191.17ZM893.031 190.041C893.592 190.041 894.054 189.897 894.416 189.61C894.778 189.322 895.046 188.944 895.22 188.475C895.394 188.006 895.481 187.499 895.481 186.952C895.481 186.405 895.394 185.895 895.22 185.423C895.046 184.951 894.778 184.569 894.416 184.278C894.054 183.987 893.592 183.841 893.031 183.841C892.47 183.841 892.008 183.987 891.646 184.278C891.284 184.569 891.016 184.951 890.842 185.423C890.668 185.895 890.581 186.405 890.581 186.952C890.581 187.499 890.668 188.006 890.842 188.475C891.016 188.944 891.284 189.322 891.646 189.61C892.008 189.897 892.47 190.041 893.031 190.041ZM900.665 186.078V191H899.407V182.818H900.622V184.097H900.728C900.92 183.681 901.211 183.347 901.602 183.095C901.993 182.839 902.497 182.712 903.115 182.712C903.669 182.712 904.153 182.825 904.569 183.053C904.984 183.276 905.308 183.617 905.538 184.075C905.769 184.53 905.885 185.105 905.885 185.801V191H904.628V185.886C904.628 185.244 904.461 184.743 904.127 184.384C903.793 184.022 903.335 183.841 902.753 183.841C902.351 183.841 901.993 183.928 901.677 184.102C901.364 184.276 901.117 184.53 900.936 184.864C900.755 185.197 900.665 185.602 900.665 186.078ZM911.339 191.192C910.821 191.192 910.35 191.094 909.928 190.899C909.505 190.7 909.17 190.414 908.921 190.041C908.673 189.665 908.548 189.21 908.548 188.678C908.548 188.209 908.641 187.829 908.825 187.538C909.01 187.243 909.257 187.012 909.566 186.845C909.875 186.678 910.216 186.554 910.588 186.472C910.965 186.387 911.343 186.32 911.723 186.27C912.22 186.206 912.623 186.158 912.932 186.126C913.245 186.091 913.472 186.032 913.614 185.95C913.76 185.869 913.832 185.727 913.832 185.524V185.482C913.832 184.956 913.689 184.548 913.401 184.256C913.117 183.965 912.685 183.82 912.107 183.82C911.506 183.82 911.036 183.951 910.695 184.214C910.354 184.477 910.114 184.757 909.976 185.055L908.783 184.629C908.996 184.132 909.28 183.745 909.635 183.468C909.994 183.187 910.384 182.992 910.807 182.882C911.233 182.768 911.652 182.712 912.064 182.712C912.327 182.712 912.629 182.744 912.969 182.808C913.314 182.868 913.646 182.994 913.966 183.186C914.289 183.377 914.557 183.667 914.77 184.054C914.983 184.441 915.089 184.96 915.089 185.609V191H913.832V189.892H913.768C913.683 190.07 913.541 190.26 913.342 190.462C913.143 190.664 912.879 190.837 912.549 190.979C912.218 191.121 911.815 191.192 911.339 191.192ZM911.531 190.062C912.028 190.062 912.447 189.965 912.788 189.77C913.133 189.574 913.392 189.322 913.566 189.013C913.744 188.704 913.832 188.379 913.832 188.038V186.888C913.779 186.952 913.662 187.01 913.481 187.064C913.303 187.113 913.097 187.158 912.863 187.197C912.632 187.232 912.407 187.264 912.186 187.293C911.97 187.317 911.794 187.339 911.659 187.357C911.332 187.399 911.027 187.468 910.743 187.564C910.462 187.657 910.235 187.797 910.061 187.985C909.891 188.17 909.805 188.422 909.805 188.741C909.805 189.178 909.967 189.509 910.29 189.732C910.617 189.952 911.031 190.062 911.531 190.062ZM921.692 182.818V183.884H917.452V182.818H921.692ZM918.688 180.858H919.945V188.656C919.945 189.011 919.997 189.278 920.1 189.455C920.206 189.629 920.341 189.746 920.504 189.807C920.671 189.864 920.847 189.892 921.032 189.892C921.17 189.892 921.284 189.885 921.373 189.871C921.461 189.853 921.532 189.839 921.586 189.828L921.841 190.957C921.756 190.989 921.637 191.021 921.484 191.053C921.332 191.089 921.138 191.107 920.904 191.107C920.549 191.107 920.201 191.03 919.86 190.877C919.522 190.725 919.242 190.492 919.018 190.18C918.798 189.867 918.688 189.473 918.688 188.997V180.858ZM927.676 191.17C926.887 191.17 926.207 190.996 925.636 190.648C925.067 190.297 924.629 189.807 924.32 189.178C924.014 188.546 923.862 187.811 923.862 186.973C923.862 186.135 924.014 185.396 924.32 184.757C924.629 184.114 925.059 183.614 925.609 183.255C926.163 182.893 926.809 182.712 927.548 182.712C927.974 182.712 928.395 182.783 928.81 182.925C929.226 183.067 929.604 183.298 929.945 183.617C930.286 183.933 930.557 184.352 930.76 184.874C930.962 185.396 931.063 186.039 931.063 186.803V187.335H924.757V186.249H929.785C929.785 185.787 929.693 185.375 929.508 185.013C929.327 184.651 929.068 184.365 928.73 184.155C928.397 183.946 928.002 183.841 927.548 183.841C927.047 183.841 926.614 183.965 926.248 184.214C925.886 184.459 925.607 184.778 925.412 185.173C925.217 185.567 925.119 185.989 925.119 186.44V187.165C925.119 187.783 925.225 188.306 925.438 188.736C925.655 189.162 925.955 189.487 926.339 189.711C926.722 189.931 927.168 190.041 927.676 190.041C928.006 190.041 928.304 189.995 928.571 189.903C928.84 189.807 929.073 189.665 929.268 189.477C929.464 189.285 929.615 189.047 929.721 188.763L930.936 189.104C930.808 189.516 930.593 189.878 930.291 190.19C929.989 190.499 929.616 190.741 929.172 190.915C928.729 191.085 928.23 191.17 927.676 191.17ZM936.815 191.17C936.133 191.17 935.532 190.998 935.009 190.654C934.487 190.306 934.079 189.816 933.784 189.184C933.49 188.548 933.342 187.797 933.342 186.93C933.342 186.071 933.49 185.325 933.784 184.693C934.079 184.061 934.489 183.573 935.015 183.228C935.54 182.884 936.148 182.712 936.837 182.712C937.369 182.712 937.79 182.8 938.099 182.978C938.411 183.152 938.649 183.351 938.813 183.575C938.98 183.795 939.109 183.976 939.202 184.118H939.308V180.091H940.565V191H939.351V189.743H939.202C939.109 189.892 938.978 190.08 938.807 190.308C938.637 190.531 938.394 190.732 938.078 190.909C937.762 191.083 937.341 191.17 936.815 191.17ZM936.986 190.041C937.49 190.041 937.916 189.91 938.264 189.647C938.612 189.381 938.877 189.013 939.058 188.544C939.239 188.072 939.329 187.527 939.329 186.909C939.329 186.298 939.241 185.764 939.063 185.306C938.886 184.844 938.623 184.485 938.275 184.23C937.927 183.971 937.497 183.841 936.986 183.841C936.453 183.841 936.009 183.978 935.654 184.251C935.302 184.521 935.038 184.888 934.86 185.354C934.686 185.815 934.599 186.334 934.599 186.909C934.599 187.491 934.688 188.021 934.866 188.496C935.047 188.969 935.313 189.345 935.665 189.626C936.02 189.903 936.46 190.041 936.986 190.041Z" fill="#A0A3BD"/>
</svg>
