<svg width="584" height="72" viewBox="0 0 584 72" fill="none" xmlns="http://www.w3.org/2000/svg">
<mask id="path-1-inside-1_76_1396" fill="white">
<path d="M0 25C0 11.1929 11.1929 0 25 0H552C565.807 0 577 11.1929 577 25V47C577 60.8071 565.807 72 552 72H25C11.1929 72 0 60.8071 0 47V25Z"/>
<path d="M183 25C183 11.1929 194.193 0 208 0H559C572.807 0 584 11.1929 584 25V47C584 60.8071 572.807 72 559 72H208C194.193 72 183 60.8071 183 47V25Z"/>
</mask>
<path d="M0 25C0 11.1929 11.1929 0 25 0H552C565.807 0 577 11.1929 577 25V47C577 60.8071 565.807 72 552 72H25C11.1929 72 0 60.8071 0 47V25Z" fill="white"/>
<path d="M183 25C183 11.1929 194.193 0 208 0H559C572.807 0 584 11.1929 584 25V47C584 60.8071 572.807 72 559 72H208C194.193 72 183 60.8071 183 47V25Z" fill="#1AECA4"/>
<path d="M25 8H552V-8H25V8ZM569 25V47H585V25H569ZM552 64H25V80H552V64ZM8 47V25H-8V47H8ZM25 64C15.6112 64 8 56.3888 8 47H-8C-8 65.2254 6.77461 80 25 80V64ZM569 47C569 56.3888 561.389 64 552 64V80C570.225 80 585 65.2254 585 47H569ZM552 8C561.389 8 569 15.6112 569 25H585C585 6.7746 570.225 -8 552 -8V8ZM25 -8C6.7746 -8 -8 6.7746 -8 25H8C8 15.6112 15.6112 8 25 8V-8ZM208 8H559V-8H208V8ZM576 25V47H592V25H576ZM559 64H208V80H559V64ZM191 47V25H175V47H191ZM208 64C198.611 64 191 56.3888 191 47H175C175 65.2254 189.775 80 208 80V64ZM576 47C576 56.3888 568.389 64 559 64V80C577.225 80 592 65.2254 592 47H576ZM559 8C568.389 8 576 15.6112 576 25H592C592 6.7746 577.225 -8 559 -8V8ZM208 -8C189.775 -8 175 6.7746 175 25H191C191 15.6112 198.611 8 208 8V-8Z" fill="#1AECA4" mask="url(#path-1-inside-1_76_1396)"/>
</svg>
